# xmcd
#
# Track frame offsets: 
#        150
#        14851
#        23787
#        40516
#        63516
#        76648
#        93844
#        111493
#        133780
#        147873
#        169145
#        186136
#
# Disc length: 2683 seconds
#
# Revision: 0
# Processed by: cddbd v1.5.2PL0 Copyright (c) Steve Scherf et al.
# Submitted via: ExactAudioCopy v0.99pb4
#
DISCID=9c0a790c
DTITLE=John Denver - For You - The Very Best of John Denver CD2
DYEAR=2007
DGENRE=Country
TTITLE0=Take Me Home Country Road
TTITLE1=Grandma's Feather Bed
TTITLE2=Never A Doubt
TTITLE3=Sunshine On My Shoulders
TTITLE4=The Flower That Shattered The Store
TTITLE5=Calypso
TTITLE6=Seasons Of The Heart
TTITLE7=I Watch You Sleeping
TTITLE8=Annie's Song
TTITLE9=Back Home Again
TTITLE10=I Want To Love
TTITLE11=Thank God I'm A Country Boy
EXTD=
EXTT0=
EXTT1=
EXTT2=
EXTT3=
EXTT4=
EXTT5=
EXTT6=
EXTT7=
EXTT8=
EXTT9=
EXTT10=
EXTT11=
PLAYORDER=
